<svg width="100" height="100" viewBox="0 0 100 100" fill="none" xmlns="http://www.w3.org/2000/svg">
<path d="M50 8.33333C44.3576 8.33333 38.9648 9.4401 33.8216 11.6536C28.6784 13.8672 24.2513 16.8294 20.5404 20.5404C16.8294 24.2513 13.8672 28.6784 11.6536 33.8216C9.4401 38.9648 8.33333 44.3576 8.33333 50C8.33333 55.6424 9.4401 61.0352 11.6536 66.1784C13.8672 71.3216 16.8294 75.7487 20.5404 79.4596C24.2513 83.1706 28.6784 86.1328 33.8216 88.3464C38.9648 90.5599 44.3576 91.6667 50 91.6667C55.6424 91.6667 61.0352 90.5599 66.1784 88.3464C71.3216 86.1328 75.7487 83.1706 79.4596 79.4596C83.1706 75.7487 86.1328 71.3216 88.3464 66.1784C90.5599 61.0352 91.6667 55.6424 91.6667 50C91.6667 44.3576 90.5599 38.9648 88.3464 33.8216C86.1328 28.6784 83.1706 24.2513 79.4596 20.5404C75.7487 16.8294 71.3216 13.8672 66.1784 11.6536C61.0352 9.4401 55.6424 8.33333 50 8.33333ZM100 50C100 59.0712 97.7648 67.4371 93.2943 75.0977C88.8238 82.7582 82.7582 88.8238 75.0977 93.2943C67.4371 97.7648 59.0712 100 50 100C40.9288 100 32.5629 97.7648 24.9023 93.2943C17.2418 88.8238 11.1762 82.7582 6.70573 75.0977C2.23524 67.4371 0 59.0712 0 50C0 40.9288 2.23524 32.5629 6.70573 24.9023C11.1762 17.2418 17.2418 11.1762 24.9023 6.70573C32.5629 2.23524 40.9288 0 50 0C59.0712 0 67.4371 2.23524 75.0977 6.70573C82.7582 11.1762 88.8238 17.2418 93.2943 24.9023C97.7648 32.5629 100 40.9288 100 50Z" fill="#FEC40E"/>
</svg>
