<svg width="100" height="100" viewBox="0 0 100 100" fill="none" xmlns="http://www.w3.org/2000/svg">
<path d="M83.3333 100H16.6667C12.2464 100 8.00716 98.244 4.88155 95.1184C1.75595 91.9928 0 87.7536 0 83.3333V16.6667C0 12.2464 1.75595 8.00716 4.88155 4.88155C8.00716 1.75595 12.2464 0 16.6667 0H83.3333C87.7536 0 91.9928 1.75595 95.1184 4.88155C98.244 8.00716 100 12.2464 100 16.6667V83.3333C100 87.7536 98.244 91.9928 95.1184 95.1184C91.9928 98.244 87.7536 100 83.3333 100ZM16.6667 11.1111C15.1932 11.1111 13.7802 11.6964 12.7383 12.7383C11.6964 13.7802 11.1111 15.1932 11.1111 16.6667V83.3333C11.1111 84.8068 11.6964 86.2198 12.7383 87.2617C13.7802 88.3036 15.1932 88.8889 16.6667 88.8889H83.3333C84.8068 88.8889 86.2198 88.3036 87.2617 87.2617C88.3036 86.2198 88.8889 84.8068 88.8889 83.3333V16.6667C88.8889 15.1932 88.3036 13.7802 87.2617 12.7383C86.2198 11.6964 84.8068 11.1111 83.3333 11.1111H16.6667Z" fill="#FEC40E"/>
</svg>
