<svg width="80" height="80" viewBox="0 0 80 80" fill="none" xmlns="http://www.w3.org/2000/svg">
<path d="M77.9271 68.1652C80.691 70.9318 80.691 75.2353 77.9271 78.0019C76.5451 79.3852 74.856 80 73.0134 80C71.1708 80 69.4818 79.3852 68.0998 78.0019L40 49.8751L11.9002 78.0019C10.5182 79.3852 8.82918 80 6.98657 80C5.14395 80 3.45489 79.3852 2.07294 78.0019C-0.690979 75.2353 -0.690979 70.9318 2.07294 68.1652L30.1727 40.0384L2.07294 11.9116C-0.690979 9.14506 -0.690979 4.8415 2.07294 2.07493C4.83685 -0.691643 9.13628 -0.691643 11.9002 2.07493L40 30.2017L68.0998 2.07493C70.8637 -0.691643 75.1631 -0.691643 77.9271 2.07493C80.691 4.8415 80.691 9.14506 77.9271 11.9116L49.8273 40.0384L77.9271 68.1652Z" fill="#FEC40E"/>
</svg>
