<svg width="22" height="15" viewBox="0 0 22 15" fill="none" xmlns="http://www.w3.org/2000/svg">
<path d="M21.6684 0.32625C21.6733 0.291423 21.6733 0.256076 21.6684 0.22125C21.6684 0.22125 21.6684 0.2025 21.6684 0.19125C21.6573 0.166058 21.6435 0.142164 21.6272 0.12L21.5859 0.07875L21.5559 0.04875H21.5334L21.4809 0.0224998L21.4172 0H21.3609H21.2484L0.293411 4.5375C0.218539 4.55419 0.150586 4.59344 0.0987177 4.64996C0.0468494 4.70647 0.013561 4.77754 0.00334244 4.85356C-0.00687615 4.92959 0.00646666 5.00692 0.0415712 5.07513C0.0766757 5.14333 0.131853 5.19913 0.199661 5.235L6.03466 8.27625L6.97591 14.175C6.98193 14.2115 6.9933 14.2469 7.00966 14.28V14.3025C7.02865 14.336 7.05268 14.3663 7.08091 14.3925C7.106 14.4135 7.13374 14.4312 7.16341 14.445H7.18591H7.20841C7.2457 14.4507 7.28362 14.4507 7.32091 14.445C7.36804 14.4665 7.41912 14.478 7.47091 14.4788H7.50466L7.55716 14.4562L11.6522 11.9363L15.8634 14.7037C15.9106 14.7349 15.9643 14.755 16.0204 14.7625C16.0764 14.77 16.1335 14.7648 16.1873 14.7471C16.241 14.7294 16.2901 14.6998 16.3307 14.6605C16.3714 14.6211 16.4027 14.5731 16.4222 14.52L21.6722 0.4875C21.6862 0.448997 21.6938 0.40846 21.6947 0.3675C21.6947 0.3675 21.6684 0.33375 21.6684 0.32625ZM8.54341 9.2925C8.52291 9.30802 8.50406 9.32562 8.48716 9.345C8.45918 9.37966 8.43759 9.41902 8.42341 9.46125L7.46341 12.4613L6.78841 8.23875L17.3372 2.80125L8.54341 9.2925ZM18.5897 1.3125L6.37591 7.60875L1.47091 5.0475L18.5897 1.3125ZM8.01091 13.2675L8.99341 10.1775L10.9472 11.4788L8.01091 13.2675ZM15.8859 13.8L11.8809 11.175L9.45841 9.585L20.5022 1.39125L15.8859 13.8Z" fill="black"/>
</svg>
