<svg width="44" height="30" viewBox="0 0 44 30" fill="none" xmlns="http://www.w3.org/2000/svg">
<path d="M43.3368 0.6525C43.3467 0.582846 43.3467 0.512153 43.3368 0.442499C43.3368 0.442499 43.3368 0.404999 43.3368 0.382499C43.3146 0.332116 43.287 0.284328 43.2543 0.24L43.1718 0.1575L43.1118 0.0975001H43.0668L42.9618 0.0449996L42.8343 0H42.7218H42.4968L0.586822 9.075C0.437078 9.10838 0.301172 9.18688 0.197435 9.29991C0.0936988 9.41294 0.0271221 9.55507 0.00668488 9.70713C-0.0137523 9.85918 0.0129333 10.0138 0.0831423 10.1503C0.153351 10.2867 0.263706 10.3983 0.399322 10.47L12.0693 16.5525L13.9518 28.35C13.9639 28.4229 13.9866 28.4937 14.0193 28.56V28.605C14.0573 28.672 14.1054 28.7327 14.1618 28.785C14.212 28.8271 14.2675 28.8624 14.3268 28.89H14.3718H14.4168C14.4914 28.9013 14.5672 28.9013 14.6418 28.89C14.7361 28.933 14.8382 28.956 14.9418 28.9575H15.0093L15.1143 28.9125L23.3043 23.8725L31.7268 29.4075C31.8212 29.4699 31.9286 29.5101 32.0407 29.5251C32.1529 29.5401 32.267 29.5295 32.3745 29.4942C32.482 29.4588 32.5801 29.3996 32.6615 29.3209C32.7428 29.2423 32.8053 29.1462 32.8443 29.04L43.3443 0.974999C43.3723 0.897995 43.3875 0.816921 43.3893 0.735C43.3893 0.735 43.3368 0.6675 43.3368 0.6525ZM17.0868 18.585C17.0458 18.616 17.0081 18.6512 16.9743 18.69C16.9184 18.7593 16.8752 18.838 16.8468 18.9225L14.9268 24.9225L13.5768 16.4775L34.6743 5.6025L17.0868 18.585ZM37.1793 2.625L12.7518 15.2175L2.94182 10.095L37.1793 2.625ZM16.0218 26.535L17.9868 20.355L21.8943 22.9575L16.0218 26.535ZM31.7718 27.6L23.7618 22.35L18.9168 19.17L41.0043 2.7825L31.7718 27.6Z" fill="white"/>
</svg>
