<svg viewBox="0 1 24 24" fill="none" xmlns="http://www.w3.org/2000/svg">
  <g opacity="0.7">
    <path
      d="M20.0337 21.9978H3.96875C3.12368 21.9968 2.3135 21.6607 1.71594 21.0631C1.11839 20.4656 0.782242 19.6554 0.78125 18.8103V9.19531C0.782242 8.35024 1.11839 7.54006 1.71594 6.94251C2.3135 6.34495 3.12368 6.0088 3.96875 6.00781H20.0337C20.8788 6.0088 21.689 6.34495 22.2866 6.94251C22.8841 7.54006 23.2203 8.35024 23.2212 9.19531V18.8103C23.2203 19.6554 22.8841 20.4656 22.2866 21.0631C21.689 21.6607 20.8788 21.9968 20.0337 21.9978ZM3.96875 7.13281C3.42174 7.13281 2.89714 7.35011 2.51034 7.7369C2.12355 8.1237 1.90625 8.6483 1.90625 9.19531V18.8103C1.90625 19.3573 2.12355 19.8819 2.51034 20.2687C2.89714 20.6555 3.42174 20.8728 3.96875 20.8728H20.0337C20.5808 20.8728 21.1054 20.6555 21.4922 20.2687C21.879 19.8819 22.0962 19.3573 22.0962 18.8103V9.19531C22.0962 8.6483 21.879 8.1237 21.4922 7.7369C21.1054 7.35011 20.5808 7.13281 20.0337 7.13281H3.96875Z"
      fill="#151313" />
    <path
      d="M11.9975 16.2789C11.3036 16.2799 10.6282 16.0548 10.0737 15.6376L1.31749 9.01511C1.25562 8.97169 1.20314 8.91625 1.16318 8.85209C1.12321 8.78794 1.09659 8.71639 1.0849 8.64171C1.0732 8.56704 1.07668 8.49078 1.09512 8.41748C1.11355 8.34418 1.14657 8.27534 1.19221 8.21509C1.23784 8.15484 1.29514 8.1044 1.3607 8.06678C1.42626 8.02917 1.49873 8.00516 1.57378 7.99617C1.64883 7.98719 1.72491 7.99343 1.7975 8.01451C1.87008 8.03558 1.93767 8.07108 1.99624 8.11886L10.7525 14.7489C11.1121 15.0173 11.5488 15.1623 11.9975 15.1623C12.4462 15.1623 12.8829 15.0173 13.2425 14.7489L21.9987 8.11886C22.0573 8.07108 22.1249 8.03558 22.1975 8.01451C22.2701 7.99343 22.3461 7.98719 22.4212 7.99617C22.4962 8.00516 22.5687 8.02917 22.6343 8.06678C22.6998 8.1044 22.7571 8.15484 22.8028 8.21509C22.8484 8.27534 22.8814 8.34418 22.8999 8.41748C22.9183 8.49078 22.9218 8.56704 22.9101 8.64171C22.8984 8.71639 22.8718 8.78794 22.8318 8.85209C22.7918 8.91625 22.7394 8.97169 22.6775 9.01511L13.9212 15.6376C13.3668 16.0548 12.6914 16.2799 11.9975 16.2789Z"
      fill="#151313" />
    <path
      d="M1.56333 20.4277C1.44924 20.4279 1.3378 20.3934 1.2438 20.3287C1.14979 20.2641 1.07766 20.1724 1.03698 20.0658C0.996297 19.9592 0.988986 19.8428 1.01602 19.732C1.04305 19.6211 1.10314 19.5211 1.18833 19.4452L8.08833 13.2915C8.19972 13.192 8.34605 13.1409 8.49515 13.1493C8.64424 13.1578 8.78387 13.2251 8.88333 13.3365C8.98278 13.4479 9.03392 13.5942 9.02548 13.7433C9.01704 13.8924 8.94972 14.032 8.83833 14.1315L1.93833 20.2852C1.83586 20.3785 1.70185 20.4294 1.56333 20.4277ZM22.4358 20.4277C22.2973 20.4294 22.1633 20.3785 22.0608 20.2852L15.1608 14.1315C15.0494 14.032 14.9821 13.8924 14.9737 13.7433C14.9652 13.5942 15.0164 13.4479 15.1158 13.3365C15.2153 13.2251 15.3549 13.1578 15.504 13.1493C15.6531 13.1409 15.7994 13.192 15.9108 13.2915L22.8071 19.4452C22.8923 19.5211 22.9524 19.6211 22.9794 19.732C23.0064 19.8428 22.9991 19.9592 22.9584 20.0658C22.9177 20.1724 22.8456 20.2641 22.7516 20.3287C22.6576 20.3934 22.5462 20.4279 22.4321 20.4277H22.4358Z"
      fill="#151313" />
  </g>
</svg>