<svg width="38" height="38" viewBox="0 0 38 38" fill="none" xmlns="http://www.w3.org/2000/svg">
<path d="M12.8528 18.8528L16.8528 22.8528L24.8528 14.8528M10.5223 4.24688C11.9573 4.13236 13.3197 3.56805 14.4154 2.63428C16.9724 0.45524 20.7332 0.45524 23.2901 2.63428C24.3859 3.56805 25.7482 4.13236 27.1833 4.24688C30.5322 4.51412 33.1914 7.17339 33.4587 10.5223C33.5732 11.9573 34.1375 13.3197 35.0713 14.4154C37.2503 16.9724 37.2503 20.7332 35.0713 23.2901C34.1375 24.3859 33.5732 25.7482 33.4587 27.1833C33.1914 30.5322 30.5322 33.1914 27.1833 33.4587C25.7482 33.5732 24.3859 34.1375 23.2901 35.0713C20.7332 37.2503 16.9724 37.2503 14.4154 35.0713C13.3197 34.1375 11.9573 33.5732 10.5223 33.4587C7.17339 33.1914 4.51412 30.5322 4.24688 27.1833C4.13236 25.7482 3.56805 24.3859 2.63428 23.2901C0.45524 20.7332 0.45524 16.9724 2.63428 14.4154C3.56805 13.3197 4.13236 11.9573 4.24688 10.5223C4.51412 7.17339 7.17339 4.51412 10.5223 4.24688Z" stroke="#FEC40E" stroke-width="2" stroke-linecap="round" stroke-linejoin="round"/>
</svg>
