<svg width="630" height="700" viewBox="0 0 630 700" fill="none" xmlns="http://www.w3.org/2000/svg">
<mask id="mask0_1100_183" style="mask-type:alpha" maskUnits="userSpaceOnUse" x="0" y="0" width="630" height="700">
<rect width="630" height="700" rx="15" fill="#D9D9D9"/>
</mask>
<g mask="url(#mask0_1100_183)">
<rect x="-35" y="114.882" width="700" height="0.486787" fill="#FEC40E" fill-opacity="0.15"/>
<rect x="-35" y="350" width="700" height="0.486787" fill="#FEC40E" fill-opacity="0.15"/>
<rect x="-35" y="271.627" width="700" height="0.486787" fill="#FEC40E" fill-opacity="0.15"/>
<rect x="-35" y="506.745" width="700" height="0.486787" fill="#FEC40E" fill-opacity="0.15"/>
<rect x="-35" y="193.255" width="700" height="0.486787" fill="#FEC40E" fill-opacity="0.15"/>
<rect x="-35" y="428.373" width="700" height="0.486787" fill="#FEC40E" fill-opacity="0.15"/>
<rect x="-35" y="350" width="700" height="0.486787" fill="#FEC40E" fill-opacity="0.15"/>
<rect x="-35" y="585.118" width="700" height="0.486787" fill="#FEC40E" fill-opacity="0.15"/>
<rect x="79.3945" y="700" width="700" height="0.486787" transform="rotate(-90 79.3945 700)" fill="#FEC40E" fill-opacity="0.15"/>
<rect x="314.516" y="700" width="700" height="0.486787" transform="rotate(-90 314.516 700)" fill="#FEC40E" fill-opacity="0.15"/>
<rect x="236.141" y="700" width="700" height="0.486787" transform="rotate(-90 236.141 700)" fill="#FEC40E" fill-opacity="0.15"/>
<rect x="471.258" y="700" width="700" height="0.486787" transform="rotate(-90 471.258 700)" fill="#FEC40E" fill-opacity="0.15"/>
<rect x="157.766" y="700" width="700" height="0.486787" transform="rotate(-90 157.766 700)" fill="#FEC40E" fill-opacity="0.15"/>
<rect x="392.891" y="700" width="700" height="0.486787" transform="rotate(-90 392.891 700)" fill="#FEC40E" fill-opacity="0.15"/>
<rect x="314.516" y="700" width="700" height="0.486787" transform="rotate(-90 314.516 700)" fill="#FEC40E" fill-opacity="0.15"/>
<rect x="549.633" y="700" width="700" height="0.486787" transform="rotate(-90 549.633 700)" fill="#FEC40E" fill-opacity="0.15"/>
</g>
</svg>
