<svg width="1438" height="1438" viewBox="0 0 1438 1438" fill="none" xmlns="http://www.w3.org/2000/svg">
<g opacity="0.1">
<rect x="1438" y="6.03199e-05" width="1438" height="1" transform="rotate(90 1438 6.03199e-05)" fill="#FEC40E"/>
<rect x="1116" y="6.03199e-05" width="1438" height="1" transform="rotate(90 1116 6.03199e-05)" fill="#FEC40E"/>
<rect x="633" y="6.03199e-05" width="1438" height="1" transform="rotate(90 633 6.03199e-05)" fill="#FEC40E"/>
<rect x="1277" y="6.03199e-05" width="1438" height="1" transform="rotate(90 1277 6.03199e-05)" fill="#FEC40E"/>
<rect x="794" y="6.03199e-05" width="1438" height="1" transform="rotate(90 794 6.03199e-05)" fill="#FEC40E"/>
<rect x="955" y="6.03199e-05" width="1438" height="1" transform="rotate(90 955 6.03199e-05)" fill="#FEC40E"/>
<rect x="472" y="6.03199e-05" width="1438" height="1" transform="rotate(90 472 6.03199e-05)" fill="#FEC40E"/>
</g>
</svg>
