<svg width="241" height="265" viewBox="0 0 241 265" fill="none" xmlns="http://www.w3.org/2000/svg">
<g filter="url(#filter0_d_824_321)">
<path d="M4 65L115 132.2V257L4 189.8V65Z" fill="black"/>
</g>
<g filter="url(#filter1_d_824_321)">
<path d="M237 65L126 132.2V257L237 189.8V65Z" fill="black"/>
</g>
<g filter="url(#filter2_d_824_321)">
<path d="M120.5 0L11 55.0196L120.5 122L230 55.0196L120.5 0Z" fill="black"/>
</g>
<path d="M52.4523 160.19L67.4527 169.203L86.2247 212.182L69.2528 201.985L52.4523 160.19ZM37.4519 112.877L51.938 121.581V191.581L37.4519 182.877V112.877ZM46.5378 132.636V118.336L59.3096 126.01C64.4526 129.1 68.7385 132.642 72.1671 136.636C75.5958 140.629 78.1959 144.891 79.9674 149.423C81.7388 153.887 82.6246 158.386 82.6246 162.919C82.6246 167.386 81.7388 170.82 79.9674 173.223C78.1959 175.558 75.5958 176.663 72.1671 176.536C68.7385 176.409 64.4526 174.8 59.3096 171.71L46.5378 164.036V150.936L58.281 157.992C60.2239 159.16 61.8811 159.822 63.2526 159.979C64.6812 160.104 65.767 159.723 66.5098 158.836C67.2527 157.883 67.6241 156.439 67.6241 154.506C67.6241 152.573 67.2527 150.716 66.5098 148.936C65.767 147.09 64.6812 145.371 63.2526 143.779C61.8811 142.222 60.2239 140.86 58.281 139.692L46.5378 132.636Z" fill="#FEC40E"/>
<path d="M75.9808 52.4569L90.4669 43.7528L151.089 78.7528L136.603 87.4569L75.9808 52.4569ZM97.1045 53.9475L85.0668 46.9975L96.8099 39.9415C101.896 36.8856 106.961 34.7943 112.007 33.6674C117.051 32.4729 121.932 32.1935 126.648 32.8291C131.364 33.4647 135.8 34.9825 139.957 37.3825C143.998 39.7158 146.634 42.2813 147.865 45.0791C149.038 47.8435 148.69 50.7396 146.821 53.7674C144.951 56.7276 141.473 59.7356 136.387 62.7915L124.644 69.8475L112.606 62.8975L124.35 55.8415C127.264 54.0904 128.886 52.3336 129.215 50.5712C129.544 48.8088 128.468 47.2109 125.985 45.7776C123.445 44.3109 120.682 43.6921 117.697 43.9212C114.712 44.1503 111.762 45.1404 108.848 46.8915L97.1045 53.9475Z" fill="#FEC40E"/>
<path d="M167.911 179.484C169.136 181.425 170.517 182.962 172.056 184.096C173.654 185.202 175.382 185.818 177.237 185.944C179.153 186.043 181.169 185.599 183.283 184.613C185.519 183.57 187.372 182.111 188.843 180.235C190.315 178.292 191.07 176.254 191.107 174.121C191.139 172.322 190.741 171.086 189.914 170.414C189.087 169.675 187.747 169.242 185.891 169.116C184.035 168.99 181.578 169.012 178.519 169.182C177.019 169.286 175.281 169.27 173.306 169.134C171.391 168.969 169.572 168.462 167.849 167.612C166.127 166.696 164.713 165.306 163.607 163.442C162.502 161.511 161.98 158.812 162.04 155.346C162.112 151.213 163.141 147.196 165.127 143.295C167.173 139.366 169.871 135.86 173.221 132.777C176.633 129.6 180.393 127.053 184.501 125.137C188.731 123.165 192.373 122.227 195.427 122.323C198.543 122.391 201.107 123.113 203.12 124.488C205.134 125.863 206.664 127.497 207.709 129.389L195.892 142.04C195.015 140.796 193.983 139.856 192.795 139.22C191.669 138.488 190.387 138.128 188.949 138.137C187.572 138.052 186.068 138.39 184.436 139.151C182.261 140.165 180.59 141.473 179.424 143.075C178.258 144.61 177.662 146.144 177.635 147.677C177.608 149.277 178.127 150.423 179.194 151.116C180.321 151.78 181.903 152.133 183.939 152.175C186.037 152.189 188.556 152.072 191.497 151.825C193.716 151.716 195.781 151.843 197.692 152.208C199.605 152.507 201.271 153.184 202.691 154.241C204.171 155.27 205.315 156.72 206.121 158.592C206.927 160.464 207.305 162.866 207.254 165.799C207.192 169.332 206.472 172.808 205.094 176.227C203.777 179.552 201.985 182.669 199.717 185.577C197.509 188.458 194.977 191.027 192.121 193.285C189.324 195.58 186.446 197.419 183.485 198.799C179.377 200.715 175.554 201.704 172.017 201.767C168.542 201.734 165.529 200.924 162.98 199.336C160.431 197.748 158.46 195.626 157.068 192.969L167.911 179.484Z" fill="#FEC40E"/>
<defs>
<filter id="filter0_d_824_321" x="0" y="65" width="119" height="200" filterUnits="userSpaceOnUse" color-interpolation-filters="sRGB">
<feFlood flood-opacity="0" result="BackgroundImageFix"/>
<feColorMatrix in="SourceAlpha" type="matrix" values="0 0 0 0 0 0 0 0 0 0 0 0 0 0 0 0 0 0 127 0" result="hardAlpha"/>
<feOffset dy="4"/>
<feGaussianBlur stdDeviation="2"/>
<feComposite in2="hardAlpha" operator="out"/>
<feColorMatrix type="matrix" values="0 0 0 0 0 0 0 0 0 0 0 0 0 0 0 0 0 0 0.25 0"/>
<feBlend mode="normal" in2="BackgroundImageFix" result="effect1_dropShadow_824_321"/>
<feBlend mode="normal" in="SourceGraphic" in2="effect1_dropShadow_824_321" result="shape"/>
</filter>
<filter id="filter1_d_824_321" x="122" y="65" width="119" height="200" filterUnits="userSpaceOnUse" color-interpolation-filters="sRGB">
<feFlood flood-opacity="0" result="BackgroundImageFix"/>
<feColorMatrix in="SourceAlpha" type="matrix" values="0 0 0 0 0 0 0 0 0 0 0 0 0 0 0 0 0 0 127 0" result="hardAlpha"/>
<feOffset dy="4"/>
<feGaussianBlur stdDeviation="2"/>
<feComposite in2="hardAlpha" operator="out"/>
<feColorMatrix type="matrix" values="0 0 0 0 0 0 0 0 0 0 0 0 0 0 0 0 0 0 0.25 0"/>
<feBlend mode="normal" in2="BackgroundImageFix" result="effect1_dropShadow_824_321"/>
<feBlend mode="normal" in="SourceGraphic" in2="effect1_dropShadow_824_321" result="shape"/>
</filter>
<filter id="filter2_d_824_321" x="7" y="0" width="227" height="130" filterUnits="userSpaceOnUse" color-interpolation-filters="sRGB">
<feFlood flood-opacity="0" result="BackgroundImageFix"/>
<feColorMatrix in="SourceAlpha" type="matrix" values="0 0 0 0 0 0 0 0 0 0 0 0 0 0 0 0 0 0 127 0" result="hardAlpha"/>
<feOffset dy="4"/>
<feGaussianBlur stdDeviation="2"/>
<feComposite in2="hardAlpha" operator="out"/>
<feColorMatrix type="matrix" values="0 0 0 0 0 0 0 0 0 0 0 0 0 0 0 0 0 0 0.25 0"/>
<feBlend mode="normal" in2="BackgroundImageFix" result="effect1_dropShadow_824_321"/>
<feBlend mode="normal" in="SourceGraphic" in2="effect1_dropShadow_824_321" result="shape"/>
</filter>
</defs>
</svg>
